<svg xmlns="http://www.w3.org/2000/svg"  viewBox="0 0 50 50" width="50px" height="50px"><path d="M 25.230469 3 C 24.185469 3 23.20425 3.4596094 22.53125 4.2246094 C 21.93225 3.7996094 21.214937 3.5664062 20.460938 3.5664062 C 20.148937 3.5664062 19.834297 3.6074531 19.529297 3.6894531 C 18.519297 3.9604531 17.690281 4.6612187 17.238281 5.5742188 C 16.841281 5.4282188 16.417187 5.3515625 15.992188 5.3515625 C 15.365187 5.3515625 14.745219 5.5180313 14.199219 5.8320312 C 13.294219 6.3550312 12.675609 7.2451406 12.474609 8.2441406 C 12.365609 8.2341406 12.254531 8.2285156 12.144531 8.2285156 C 11.185531 8.2285156 10.283469 8.6012969 9.6054688 9.2792969 C 8.8664687 10.018297 8.4984531 11.039641 8.5644531 12.056641 C 7.5244531 12.236641 6.5995 12.870828 6.0625 13.798828 C 5.5395 14.703828 5.4464375 15.785 5.7734375 16.75 C 4.8194375 17.19 4.0885938 18.035031 3.8085938 19.082031 C 3.5375938 20.092031 3.7299219 21.159813 4.2949219 22.007812 C 3.4889219 22.679812 3 23.684578 3 24.767578 C 3 25.812578 3.4615625 26.79575 4.2265625 27.46875 C 3.6205625 28.32675 3.4084531 29.423703 3.6894531 30.470703 C 3.9604531 31.480703 4.6592656 32.309719 5.5722656 32.761719 C 5.2092656 33.746719 5.2900312 34.860828 5.8320312 35.798828 C 6.3520312 36.700828 7.2401406 37.324391 8.2441406 37.525391 C 8.1481406 38.571391 8.5142969 39.626578 9.2792969 40.392578 C 9.9572969 41.070578 10.858359 41.443359 11.818359 41.443359 C 11.898359 41.443359 11.977641 41.440547 12.056641 41.435547 C 12.234641 42.470547 12.862781 43.394547 13.800781 43.935547 C 14.345781 44.250547 14.964797 44.417969 15.591797 44.417969 C 15.990797 44.417969 16.381953 44.352563 16.751953 44.226562 C 17.191953 45.179563 18.036031 45.909453 19.082031 46.189453 C 19.386031 46.271453 19.699672 46.3125 20.013672 46.3125 C 20.733672 46.3125 21.424766 46.097078 22.009766 45.705078 C 22.680766 46.512078 23.686531 47 24.769531 47 C 25.813531 47 26.79575 46.539391 27.46875 45.775391 C 28.06775 46.200391 28.785062 46.433594 29.539062 46.433594 C 29.852062 46.433594 30.166703 46.392547 30.470703 46.310547 C 31.480703 46.039547 32.309719 45.341734 32.761719 44.427734 C 33.158719 44.573734 33.582813 44.650391 34.007812 44.650391 C 34.634813 44.650391 35.254781 44.483922 35.800781 44.169922 C 36.705781 43.646922 37.324391 42.756812 37.525391 41.757812 C 37.634391 41.767812 37.745469 41.771484 37.855469 41.771484 C 38.814469 41.771484 39.715578 41.398703 40.392578 40.720703 C 41.131578 39.981703 41.501547 38.961359 41.435547 37.943359 C 42.475547 37.763359 43.4005 37.129172 43.9375 36.201172 C 44.4605 35.295172 44.551609 34.214047 44.224609 33.248047 C 45.178609 32.808047 45.909453 31.964969 46.189453 30.917969 C 46.460453 29.907969 46.270078 28.840188 45.705078 27.992188 C 46.513078 27.320187 47 26.314469 47 25.230469 C 47 24.185469 46.538437 23.20425 45.773438 22.53125 C 46.379438 21.67325 46.591547 20.576297 46.310547 19.529297 C 46.039547 18.519297 45.340734 17.690281 44.427734 17.238281 C 44.790734 16.253281 44.709969 15.137219 44.167969 14.199219 C 43.647969 13.297219 42.759859 12.674609 41.755859 12.474609 C 41.851859 11.428609 41.48475 10.373422 40.71875 9.6074219 C 40.04175 8.9294219 39.139688 8.5566406 38.179688 8.5566406 C 38.100687 8.5566406 38.021359 8.5594531 37.943359 8.5644531 C 37.765359 7.5294531 37.137219 6.6045 36.199219 6.0625 C 35.653219 5.7475 35.035203 5.5820312 34.408203 5.5820312 C 34.009203 5.5820312 33.618047 5.6474375 33.248047 5.7734375 C 32.808047 4.8204375 31.963969 4.0895938 30.917969 3.8085938 C 30.611969 3.7265938 30.298328 3.6855469 29.986328 3.6855469 C 29.266328 3.6855469 28.574234 3.9009687 27.990234 4.2929688 C 27.319234 3.4869687 26.313469 3 25.230469 3 z M 14.527344 22.5 C 14.724344 22.5 14.904375 22.615875 14.984375 22.796875 C 15.344375 23.608875 16.143531 24.132813 17.019531 24.132812 C 17.895531 24.132812 18.696641 23.608875 19.056641 22.796875 C 19.216641 22.435875 19.810703 22.435875 19.970703 22.796875 C 20.330703 23.608875 21.129859 24.132813 22.005859 24.132812 C 22.881859 24.132812 23.682969 23.608875 24.042969 22.796875 C 24.122969 22.615875 24.301047 22.5 24.498047 22.5 C 24.696047 22.5 24.875078 22.615875 24.955078 22.796875 C 25.315078 23.608875 26.115187 24.132813 26.992188 24.132812 C 27.869188 24.132812 28.667344 23.608875 29.027344 22.796875 C 29.107344 22.615875 29.286375 22.5 29.484375 22.5 C 29.681375 22.5 29.861406 22.615875 29.941406 22.796875 C 30.301406 23.608875 31.102516 24.132813 31.978516 24.132812 C 32.854516 24.132812 33.653672 23.608875 34.013672 22.796875 C 34.093672 22.615875 34.273703 22.5 34.470703 22.5 C 34.668703 22.5 34.847734 22.615875 34.927734 22.796875 C 35.287734 23.608875 36.087844 24.132813 36.964844 24.132812 L 37.583984 24.132812 C 37.724984 24.132812 37.858125 24.193875 37.953125 24.296875 C 38.621125 25.025875 38.507859 25.61825 38.380859 25.90625 C 38.179859 26.36025 37.599 26.894328 36 26.986328 L 36 31.5 C 36 36.752 30.212141 39.5 24.494141 39.5 C 18.782141 39.5 13 36.752 13 31.5 L 13 26.986328 C 11.72 26.912328 10.901094 26.541297 10.621094 25.904297 C 10.495094 25.616297 10.383688 25.023922 11.054688 24.294922 C 11.149688 24.191922 11.282875 24.132812 11.421875 24.132812 L 12.033203 24.132812 C 12.910203 24.132812 13.710313 23.608875 14.070312 22.796875 C 14.150313 22.615875 14.329344 22.5 14.527344 22.5 z M 18 30 C 16.897 30 16 30.897 16 32 C 16 33.103 16.897 34 18 34 C 19.103 34 20 33.103 20 32 C 20 30.897 19.103 30 18 30 z M 31 30 C 29.897 30 29 30.897 29 32 C 29 33.103 29.897 34 31 34 C 32.103 34 33 33.103 33 32 C 33 30.897 32.103 30 31 30 z"/></svg>